<?xml version="1.0" encoding="UTF-8"?><svg id="b" xmlns="http://www.w3.org/2000/svg" viewBox="0 0 150 150"><ellipse cx="52.76" cy="75.04" rx="26.09" ry="42.17" fill="#f9f4da"/><path d="M41.46,63.03c-6.01,0-11.32,2.93-14.63,7.42-.1,1.51-.16,3.04-.16,4.59,0,7.3,1.15,14.16,3.16,20.14,3.15,2.62,7.2,4.21,11.62,4.21,10.04,0,18.18-8.14,18.18-18.18s-8.14-18.18-18.18-18.18Z" fill="#0ba65b" stroke="#231f20" stroke-linecap="round" stroke-linejoin="round" stroke-width="1.5"/><circle cx="40.94" cy="81.09" r="12.6" fill="#231f20"/><circle cx="40.94" cy="81.09" r="12.6" fill="none" stroke="#231f20" stroke-linecap="round" stroke-linejoin="round"/><ellipse cx="36.39" cy="74.84" rx="2.58" ry="2.44" fill="#f9f4da"/><ellipse cx="39.14" cy="79.32" rx=".87" ry=".82" fill="#f9f4da"/><ellipse cx="52.76" cy="75.04" rx="26.09" ry="42.17" fill="none"/><ellipse cx="52.76" cy="75.04" rx="26.09" ry="42.17" fill="none" stroke="#231f20" stroke-linecap="round" stroke-linejoin="round" stroke-width="1.5"/><ellipse cx="98.05" cy="75.04" rx="26.09" ry="42.17" fill="#f9f4da"/><path d="M86.75,63.03c-6.01,0-11.32,2.93-14.63,7.42-.1,1.51-.16,3.04-.16,4.59,0,7.3,1.15,14.16,3.16,20.14,3.15,2.62,7.2,4.21,11.62,4.21,10.04,0,18.18-8.14,18.18-18.18s-8.14-18.18-18.18-18.18Z" fill="#0ba65b" stroke="#231f20" stroke-linecap="round" stroke-linejoin="round" stroke-width="1.5"/><circle cx="86.23" cy="81.09" r="12.6" fill="#231f20"/><circle cx="86.23" cy="81.09" r="12.6" fill="none" stroke="#231f20" stroke-linecap="round" stroke-linejoin="round"/><ellipse cx="81.68" cy="74.84" rx="2.58" ry="2.44" fill="#f9f4da"/><ellipse cx="84.43" cy="79.32" rx=".87" ry=".82" fill="#f9f4da"/><ellipse cx="98.05" cy="75.04" rx="26.09" ry="42.17" fill="none"/><ellipse cx="98.05" cy="75.04" rx="26.09" ry="42.17" fill="none" stroke="#231f20" stroke-linecap="round" stroke-linejoin="round" stroke-width="1.6"/></svg>